<svg xmlns="http://www.w3.org/2000/svg" xmlns:xlink="http://www.w3.org/1999/xlink" width="500" zoomAndPan="magnify" viewBox="0 0 375 149.999998" height="200" preserveAspectRatio="xMidYMid meet" version="1.0"><defs><g/><clipPath id="e415d173fe"><path d="M 191 8 L 374 8 L 374 143 L 191 143 Z M 191 8 " clip-rule="nonzero"/></clipPath><clipPath id="e0d8096a53"><path d="M 183.316406 27.828125 L 358.667969 -14.671875 L 389.578125 112.859375 L 214.226562 155.359375 Z M 183.316406 27.828125 " clip-rule="nonzero"/></clipPath><clipPath id="82723c817e"><path d="M 183.316406 27.828125 L 358.667969 -14.671875 L 389.578125 112.859375 L 214.226562 155.359375 Z M 183.316406 27.828125 " clip-rule="nonzero"/></clipPath><clipPath id="57d428bb0c"><path d="M 2.292969 54.878906 L 35 54.878906 L 35 87.683594 L 2.292969 87.683594 Z M 2.292969 54.878906 " clip-rule="nonzero"/></clipPath></defs><g clip-path="url(#e415d173fe)"><g clip-path="url(#e0d8096a53)"><g clip-path="url(#82723c817e)"><path fill="#ff6100" d="M 369.839844 44.886719 C 370.5 47.378906 371.878906 48.867188 373.011719 49.703125 C 371.304688 52.019531 369.585938 54.320312 367.855469 56.617188 C 365.972656 55.199219 362.914062 52.195312 361.574219 47.128906 C 358.402344 51.378906 355.191406 55.59375 351.941406 59.785156 C 348.226562 64.566406 344.464844 69.3125 340.644531 74.015625 C 336.824219 78.714844 332.945312 83.375 328.992188 87.980469 C 325.039062 92.582031 321.011719 97.132812 316.890625 101.605469 C 312.761719 106.074219 308.542969 110.472656 304.167969 114.75 C 299.796875 119.023438 295.277344 123.183594 290.492188 127.117188 C 285.691406 131.03125 280.664062 134.769531 274.9375 137.84375 C 272.066406 139.359375 269.003906 140.71875 265.542969 141.558594 C 263.808594 141.960938 261.96875 142.234375 260.015625 142.207031 C 259.042969 142.195312 258.039062 142.089844 257.035156 141.910156 C 256.027344 141.710938 255.019531 141.417969 254.039062 141.019531 C 253.066406 140.609375 252.128906 140.101562 251.261719 139.507812 C 250.476562 138.902344 249.675781 138.34375 248.980469 137.613281 C 248.238281 136.941406 247.621094 136.140625 247 135.351562 C 246.722656 134.933594 246.449219 134.511719 246.183594 134.089844 C 246.042969 133.882812 245.925781 133.664062 245.816406 133.441406 L 245.484375 132.777344 C 244.625 131.007812 244.050781 129.144531 243.765625 127.339844 L 243.644531 126.660156 L 243.570312 125.988281 C 243.523438 125.542969 243.46875 125.09375 243.4375 124.648438 C 243.410156 123.777344 243.347656 122.882812 243.390625 122.03125 C 243.464844 118.585938 243.996094 115.332031 244.730469 112.207031 C 245.464844 109.078125 246.390625 106.0625 247.410156 103.113281 C 249.457031 97.21875 251.875 91.574219 254.386719 86.023438 C 256.898438 80.472656 259.527344 75.019531 262.125 69.589844 C 264.726562 64.160156 267.304688 58.757812 269.703125 53.328125 C 272.085938 47.90625 274.332031 42.441406 275.949219 36.972656 C 276.75 34.246094 277.382812 31.515625 277.6875 28.890625 L 277.765625 27.921875 L 277.808594 27.4375 L 277.816406 26.96875 C 277.820312 26.65625 277.835938 26.335938 277.835938 26.027344 L 277.796875 25.125 C 277.707031 23.949219 277.511719 22.851562 277.175781 21.917969 C 276.820312 21.003906 276.351562 20.257812 275.734375 19.621094 C 275.574219 19.464844 275.4375 19.289062 275.238281 19.164062 L 274.96875 18.949219 C 274.875 18.875 274.800781 18.796875 274.675781 18.730469 C 274.449219 18.59375 274.226562 18.453125 274.003906 18.304688 L 273.292969 17.949219 C 272.332031 17.503906 271.289062 17.199219 270.171875 17.023438 C 269.058594 16.847656 267.855469 16.851562 266.628906 16.9375 C 264.164062 17.125 261.566406 17.824219 259 18.75 C 256.429688 19.707031 253.878906 20.917969 251.375 22.277344 C 246.363281 25.019531 241.542969 28.339844 236.875 31.894531 C 232.210938 35.464844 227.695312 39.289062 223.300781 43.273438 C 218.910156 47.253906 214.632812 51.386719 210.464844 55.632812 C 208.378906 57.753906 206.320312 59.902344 204.292969 62.078125 C 203.277344 63.164062 202.269531 64.257812 201.273438 65.359375 C 200.285156 66.449219 199.277344 67.578125 198.347656 68.652344 L 191.855469 63.070312 C 192.898438 61.867188 193.898438 60.753906 194.933594 59.613281 C 195.957031 58.480469 196.992188 57.355469 198.03125 56.242188 C 200.113281 54.007812 202.21875 51.808594 204.359375 49.632812 C 208.632812 45.28125 213.023438 41.039062 217.554688 36.929688 C 222.089844 32.820312 226.773438 28.847656 231.679688 25.09375 C 236.59375 21.351562 241.714844 17.808594 247.277344 14.761719 C 250.066406 13.25 252.96875 11.863281 256.042969 10.71875 C 259.136719 9.601562 262.402344 8.6875 265.953125 8.40625 C 267.726562 8.277344 269.554688 8.269531 271.421875 8.558594 C 273.285156 8.839844 275.160156 9.375 276.929688 10.199219 C 277.367188 10.417969 277.804688 10.632812 278.234375 10.867188 L 279.472656 11.640625 C 279.675781 11.761719 279.886719 11.933594 280.089844 12.09375 L 280.707031 12.578125 C 281.125 12.886719 281.492188 13.273438 281.867188 13.652344 C 283.355469 15.167969 284.488281 17.039062 285.199219 18.941406 C 285.894531 20.847656 286.203125 22.746094 286.335938 24.566406 L 286.394531 25.921875 C 286.398438 26.363281 286.378906 26.800781 286.371094 27.242188 L 286.351562 27.898438 L 286.300781 28.539062 L 286.195312 29.820312 C 285.804688 33.183594 285.050781 36.339844 284.160156 39.390625 C 282.351562 45.484375 279.992188 51.183594 277.53125 56.785156 C 275.0625 62.378906 272.449219 67.847656 269.84375 73.285156 C 267.242188 78.722656 264.636719 84.128906 262.183594 89.550781 C 259.726562 94.976562 257.402344 100.421875 255.496094 105.914062 C 254.546875 108.65625 253.707031 111.410156 253.066406 114.148438 C 252.417969 116.882812 252 119.609375 251.949219 122.1875 C 251.910156 122.84375 251.96875 123.457031 251.980469 124.089844 C 252 124.394531 252.042969 124.691406 252.070312 124.996094 L 252.117188 125.449219 L 252.199219 125.878906 C 252.375 127.050781 252.730469 128.089844 253.175781 129.027344 L 253.347656 129.375 C 253.402344 129.492188 253.460938 129.609375 253.535156 129.710938 C 253.675781 129.917969 253.8125 130.128906 253.941406 130.347656 C 254.269531 130.726562 254.550781 131.140625 254.941406 131.472656 C 255.273438 131.847656 255.734375 132.136719 256.125 132.464844 C 256.503906 132.71875 256.894531 132.929688 257.308594 133.109375 C 257.726562 133.273438 258.167969 133.40625 258.640625 133.503906 C 259.117188 133.582031 259.617188 133.644531 260.148438 133.648438 C 261.210938 133.664062 262.371094 133.507812 263.570312 133.230469 C 265.972656 132.652344 268.480469 131.582031 270.925781 130.285156 C 275.828125 127.660156 280.542969 124.199219 285.0625 120.5 C 289.585938 116.78125 293.945312 112.777344 298.183594 108.628906 C 302.425781 104.480469 306.550781 100.183594 310.597656 95.800781 C 314.640625 91.414062 318.601562 86.941406 322.496094 82.402344 C 326.394531 77.867188 330.226562 73.265625 334.003906 68.617188 C 337.777344 63.96875 341.503906 59.273438 345.175781 54.535156 C 348.394531 50.390625 351.574219 46.210938 354.71875 42.007812 C 349.5 42.128906 345.785156 39.972656 343.90625 38.558594 C 345.578125 36.34375 347.238281 34.121094 348.882812 31.890625 C 350.015625 32.726562 351.835938 33.621094 354.386719 33.539062 C 356.929688 33.457031 360.242188 32.375 364.238281 29.265625 L 370.953125 33.996094 C 369.242188 38.917969 369.183594 42.386719 369.839844 44.886719 Z M 369.839844 44.886719 " fill-opacity="1" fill-rule="nonzero"/></g></g></g><g clip-path="url(#57d428bb0c)"><path fill="#ff6100" d="M 34.980469 66.773438 L 34.980469 75.742188 C 24.113281 78.921875 22.492188 84.558594 22.492188 87.636719 L 13.144531 87.636719 C 13.144531 85.066406 13.734375 80.414062 17.304688 75.929688 L 2.308594 75.929688 L 2.308594 66.582031 L 17.304688 66.582031 C 13.734375 62.097656 13.144531 57.449219 13.144531 54.878906 L 22.492188 54.878906 C 22.492188 57.957031 24.113281 63.59375 34.980469 66.773438 Z M 34.980469 66.773438 " fill-opacity="1" fill-rule="nonzero"/></g><g fill="#ffffff" fill-opacity="1"><g transform="translate(48.330843, 86.310971)"><g><path d="M 20.171875 0.453125 C 13.273438 0.453125 8.265625 -0.875 5.140625 -3.53125 C 2.015625 -6.195312 0.453125 -10.265625 0.453125 -15.734375 C 0.453125 -21.179688 2.015625 -25.226562 5.140625 -27.875 C 8.265625 -30.519531 13.273438 -31.84375 20.171875 -31.84375 C 26.453125 -31.84375 31.226562 -30.695312 34.5 -28.40625 C 37.78125 -26.125 39.539062 -22.5 39.78125 -17.53125 L 27.84375 -17.53125 C 27.632812 -19.03125 26.925781 -20.144531 25.71875 -20.875 C 24.507812 -21.601562 22.660156 -21.96875 20.171875 -21.96875 C 17.878906 -21.96875 16.15625 -21.675781 15 -21.09375 C 13.851562 -20.507812 13.082031 -19.75 12.6875 -18.8125 C 12.300781 -17.875 12.109375 -16.847656 12.109375 -15.734375 C 12.109375 -14.628906 12.300781 -13.59375 12.6875 -12.625 C 13.082031 -11.65625 13.859375 -10.878906 15.015625 -10.296875 C 16.179688 -9.710938 17.898438 -9.421875 20.171875 -9.421875 C 22.660156 -9.421875 24.507812 -9.800781 25.71875 -10.5625 C 26.925781 -11.320312 27.632812 -12.453125 27.84375 -13.953125 L 39.78125 -13.953125 C 39.539062 -8.984375 37.789062 -5.335938 34.53125 -3.015625 C 31.269531 -0.703125 26.484375 0.453125 20.171875 0.453125 Z M 20.171875 0.453125 "/></g></g></g><g fill="#ffffff" fill-opacity="1"><g transform="translate(88.551904, 86.310971)"><g><path d="M 0.890625 0 L 0.890625 -31.390625 L 12.5625 -31.390625 L 12.5625 0 Z M 0.890625 0 "/></g></g></g><g fill="#ffffff" fill-opacity="1"><g transform="translate(102.003762, 86.310971)"><g><path d="M 0.890625 0 L 0.890625 -31.390625 L 16.140625 -31.390625 L 29.6875 -12.875 L 29.6875 -31.390625 L 41.34375 -31.390625 L 41.34375 0 L 26.09375 0 L 12.5625 -18.515625 L 12.5625 0 Z M 0.890625 0 "/></g></g></g><g fill="#ffffff" fill-opacity="1"><g transform="translate(144.2426, 86.310971)"><g><path d="M 8.75 -34.078125 L 8.75 -40.359375 L 26.1875 -43.953125 L 26.1875 -37.671875 Z M 0.890625 0 L 0.890625 -31.390625 L 34.078125 -31.390625 L 34.078125 -22.421875 L 12.5625 -22.421875 L 12.5625 -19.5 L 34.078125 -19.5 L 34.078125 -11.890625 L 12.5625 -11.890625 L 12.5625 -8.96875 L 34.078125 -8.96875 L 34.078125 0 Z M 0.890625 0 "/></g></g></g><g fill="#ffffff" fill-opacity="1"><g transform="translate(178.769038, 86.310971)"><g><path d="M 0.890625 0 L 0.890625 -31.390625 L 34.078125 -31.390625 L 34.078125 -21.53125 L 12.5625 -21.53125 L 12.5625 -18.15625 L 31.390625 -18.15625 L 31.390625 -8.296875 L 12.5625 -8.296875 L 12.5625 0 Z M 0.890625 0 "/></g></g></g><g fill="#ffffff" fill-opacity="1"><g transform="translate(213.295477, 86.310971)"><g><path d="M 0.890625 0 L 0.890625 -31.390625 L 12.5625 -31.390625 L 12.5625 -9.859375 L 33.1875 -9.859375 L 33.1875 0 Z M 0.890625 0 "/></g></g></g><g fill="#ffffff" fill-opacity="1"><g transform="translate(246.925135, 86.310971)"><g><path d="M 0.890625 0 L 0.890625 -31.390625 L 12.5625 -31.390625 L 12.5625 0 Z M 0.890625 0 "/></g></g></g><g fill="#ffffff" fill-opacity="1"><g transform="translate(260.376994, 86.310971)"><g><path d="M 0.453125 0 L 15.296875 -15.6875 L 0.453125 -31.390625 L 15.6875 -31.390625 L 23.59375 -22.421875 L 31.484375 -31.390625 L 46.734375 -31.390625 L 31.890625 -15.6875 L 46.734375 0 L 31.484375 0 L 23.59375 -8.96875 L 15.6875 0 Z M 0.453125 0 "/></g></g></g><g fill="#9cff1e" fill-opacity="1"><g transform="translate(48.330843, 112.570524)"><g><path d="M 0.390625 0 L 0.390625 -13.40625 L 6.515625 -13.40625 L 10.65625 -5.75 L 14.78125 -13.40625 L 20.921875 -13.40625 L 20.921875 0 L 15.9375 0 L 15.9375 -6.375 L 12.28125 0 L 9.015625 0 L 5.359375 -6.375 L 5.359375 0 Z M 0.390625 0 "/></g></g></g><g fill="#9cff1e" fill-opacity="1"><g transform="translate(69.62766, 112.570524)"><g><path d="M 8.625 0.1875 C 5.664062 0.1875 3.519531 -0.378906 2.1875 -1.515625 C 0.851562 -2.648438 0.1875 -4.382812 0.1875 -6.71875 C 0.1875 -9.039062 0.851562 -10.765625 2.1875 -11.890625 C 3.519531 -13.023438 5.664062 -13.59375 8.625 -13.59375 C 11.5625 -13.59375 13.695312 -13.023438 15.03125 -11.890625 C 16.375 -10.765625 17.046875 -9.039062 17.046875 -6.71875 C 17.046875 -4.394531 16.375 -2.660156 15.03125 -1.515625 C 13.695312 -0.378906 11.5625 0.1875 8.625 0.1875 Z M 8.625 -4.015625 C 9.601562 -4.015625 10.335938 -4.140625 10.828125 -4.390625 C 11.328125 -4.648438 11.65625 -4.984375 11.8125 -5.390625 C 11.976562 -5.804688 12.0625 -6.25 12.0625 -6.71875 C 12.0625 -7.195312 11.976562 -7.632812 11.8125 -8.03125 C 11.65625 -8.4375 11.328125 -8.765625 10.828125 -9.015625 C 10.335938 -9.265625 9.601562 -9.390625 8.625 -9.390625 C 7.632812 -9.390625 6.894531 -9.265625 6.40625 -9.015625 C 5.914062 -8.765625 5.585938 -8.4375 5.421875 -8.03125 C 5.253906 -7.632812 5.171875 -7.195312 5.171875 -6.71875 C 5.171875 -6.25 5.253906 -5.804688 5.421875 -5.390625 C 5.585938 -4.972656 5.921875 -4.640625 6.421875 -4.390625 C 6.921875 -4.140625 7.65625 -4.015625 8.625 -4.015625 Z M 8.625 -4.015625 "/></g></g></g><g fill="#9cff1e" fill-opacity="1"><g transform="translate(86.864292, 112.570524)"><g><path d="M 5.75 0 L 0.1875 -13.40625 L 5.671875 -13.40625 L 9.4375 -3.453125 L 13.21875 -13.40625 L 18.703125 -13.40625 L 13.140625 0 Z M 5.75 0 "/></g></g></g><g fill="#9cff1e" fill-opacity="1"><g transform="translate(105.747979, 112.570524)"><g><path d="M 0.390625 0 L 0.390625 -13.40625 L 5.359375 -13.40625 L 5.359375 0 Z M 0.390625 0 "/></g></g></g><g fill="#9cff1e" fill-opacity="1"><g transform="translate(111.493523, 112.570524)"><g><path d="M 0.390625 0 L 0.390625 -13.40625 L 14.5625 -13.40625 L 14.5625 -9.578125 L 5.359375 -9.578125 L 5.359375 -8.328125 L 14.5625 -8.328125 L 14.5625 -5.078125 L 5.359375 -5.078125 L 5.359375 -3.828125 L 14.5625 -3.828125 L 14.5625 0 Z M 0.390625 0 "/></g></g></g><g fill="#9cff1e" fill-opacity="1"><g transform="translate(126.24042, 112.570524)"><g><path d="M 8.75 0.1875 C 6.925781 0.1875 5.375 0.0546875 4.09375 -0.203125 C 2.820312 -0.472656 1.851562 -0.960938 1.1875 -1.671875 C 0.519531 -2.378906 0.1875 -3.398438 0.1875 -4.734375 L 5.171875 -4.734375 C 5.171875 -4.515625 5.265625 -4.320312 5.453125 -4.15625 C 5.648438 -3.988281 6.019531 -3.859375 6.5625 -3.765625 C 7.101562 -3.679688 7.898438 -3.640625 8.953125 -3.640625 C 9.929688 -3.640625 10.660156 -3.660156 11.140625 -3.703125 C 11.628906 -3.753906 11.953125 -3.828125 12.109375 -3.921875 C 12.265625 -4.023438 12.34375 -4.160156 12.34375 -4.328125 C 12.34375 -4.515625 12.257812 -4.65625 12.09375 -4.75 C 11.9375 -4.851562 11.601562 -4.925781 11.09375 -4.96875 C 10.582031 -5.007812 9.800781 -5.046875 8.75 -5.078125 C 6.738281 -5.140625 5.117188 -5.3125 3.890625 -5.59375 C 2.660156 -5.875 1.769531 -6.316406 1.21875 -6.921875 C 0.664062 -7.523438 0.390625 -8.347656 0.390625 -9.390625 C 0.390625 -10.867188 1.085938 -11.9375 2.484375 -12.59375 C 3.890625 -13.257812 5.914062 -13.59375 8.5625 -13.59375 C 10.3125 -13.59375 11.789062 -13.441406 13 -13.140625 C 14.21875 -12.835938 15.144531 -12.34375 15.78125 -11.65625 C 16.425781 -10.96875 16.75 -10.050781 16.75 -8.90625 L 11.765625 -8.90625 C 11.765625 -9.257812 11.46875 -9.488281 10.875 -9.59375 C 10.289062 -9.707031 9.394531 -9.765625 8.1875 -9.765625 C 7.40625 -9.765625 6.8125 -9.75 6.40625 -9.71875 C 6 -9.6875 5.722656 -9.625 5.578125 -9.53125 C 5.429688 -9.445312 5.359375 -9.316406 5.359375 -9.140625 C 5.359375 -8.972656 5.4375 -8.847656 5.59375 -8.765625 C 5.757812 -8.691406 6.082031 -8.640625 6.5625 -8.609375 C 7.050781 -8.585938 7.78125 -8.5625 8.75 -8.53125 C 10.082031 -8.476562 11.273438 -8.394531 12.328125 -8.28125 C 13.378906 -8.175781 14.273438 -7.988281 15.015625 -7.71875 C 15.753906 -7.445312 16.320312 -7.050781 16.71875 -6.53125 C 17.113281 -6.019531 17.3125 -5.320312 17.3125 -4.4375 C 17.3125 -3.21875 16.976562 -2.269531 16.3125 -1.59375 C 15.65625 -0.925781 14.691406 -0.460938 13.421875 -0.203125 C 12.148438 0.0546875 10.59375 0.1875 8.75 0.1875 Z M 8.75 0.1875 "/></g></g></g></svg>