<svg xmlns="http://www.w3.org/2000/svg" xmlns:xlink="http://www.w3.org/1999/xlink" width="500" zoomAndPan="magnify" viewBox="0 0 375 149.999998" height="200" preserveAspectRatio="xMidYMid meet" version="1.0"><defs><g/><clipPath id="0b14780fac"><path d="M 191 13 L 373 13 L 373 148 L 191 148 Z M 191 13 " clip-rule="nonzero"/></clipPath><clipPath id="42182610dc"><path d="M 182.992188 33.269531 L 358.136719 -9.179688 L 388.574219 116.394531 L 213.429688 158.847656 Z M 182.992188 33.269531 " clip-rule="nonzero"/></clipPath><clipPath id="87748b36f9"><path d="M 182.992188 33.269531 L 358.136719 -9.179688 L 388.574219 116.394531 L 213.429688 158.847656 Z M 182.992188 33.269531 " clip-rule="nonzero"/></clipPath><clipPath id="fd49d875c7"><path d="M 2.425781 60.246094 L 34.730469 60.246094 L 34.730469 92.550781 L 2.425781 92.550781 Z M 2.425781 60.246094 " clip-rule="nonzero"/></clipPath></defs><g clip-path="url(#0b14780fac)"><g clip-path="url(#42182610dc)"><g clip-path="url(#87748b36f9)"><path fill="#ff6100" d="M 369.078125 50.273438 C 369.734375 52.761719 371.113281 54.246094 372.242188 55.078125 C 370.539062 57.390625 368.824219 59.6875 367.097656 61.976562 C 365.222656 60.566406 362.167969 57.566406 360.832031 52.511719 C 357.664062 56.75 354.460938 60.957031 351.21875 65.136719 C 347.515625 69.910156 343.761719 74.644531 339.953125 79.335938 C 336.140625 84.027344 332.269531 88.671875 328.324219 93.265625 C 324.382812 97.859375 320.363281 102.398438 316.25 106.859375 C 312.136719 111.320312 307.921875 115.707031 303.5625 119.972656 C 299.199219 124.238281 294.6875 128.386719 289.914062 132.3125 C 285.125 136.21875 280.109375 139.949219 274.398438 143.015625 C 271.53125 144.527344 268.476562 145.882812 265.027344 146.722656 C 263.296875 147.125 261.460938 147.394531 259.511719 147.367188 C 258.539062 147.355469 257.539062 147.25 256.535156 147.070312 C 255.53125 146.875 254.527344 146.578125 253.550781 146.183594 C 252.578125 145.773438 251.644531 145.269531 250.777344 144.675781 C 249.992188 144.070312 249.195312 143.515625 248.5 142.785156 C 247.761719 142.113281 247.144531 141.316406 246.527344 140.527344 C 246.25 140.113281 245.976562 139.691406 245.710938 139.269531 C 245.570312 139.0625 245.453125 138.84375 245.34375 138.621094 L 245.011719 137.960938 C 244.15625 136.195312 243.582031 134.335938 243.296875 132.535156 L 243.175781 131.859375 L 243.101562 131.1875 C 243.058594 130.742188 243.003906 130.292969 242.972656 129.851562 C 242.945312 128.980469 242.882812 128.089844 242.925781 127.242188 C 243 123.804688 243.53125 120.554688 244.261719 117.4375 C 244.992188 114.316406 245.917969 111.308594 246.933594 108.363281 C 248.976562 102.484375 251.386719 96.851562 253.894531 91.3125 C 256.402344 85.777344 259.023438 80.335938 261.617188 74.921875 C 264.210938 69.503906 266.78125 64.113281 269.175781 58.699219 C 271.554688 53.289062 273.792969 47.835938 275.40625 42.382812 C 276.207031 39.660156 276.835938 36.9375 277.140625 34.316406 L 277.21875 33.351562 L 277.261719 32.867188 L 277.269531 32.398438 C 277.273438 32.085938 277.289062 31.769531 277.289062 31.460938 L 277.25 30.5625 C 277.160156 29.386719 276.964844 28.289062 276.632812 27.359375 C 276.277344 26.445312 275.808594 25.703125 275.191406 25.070312 C 275.035156 24.914062 274.898438 24.738281 274.699219 24.609375 L 274.425781 24.398438 C 274.335938 24.324219 274.261719 24.246094 274.136719 24.179688 C 273.910156 24.042969 273.6875 23.902344 273.464844 23.757812 L 272.757812 23.398438 C 271.796875 22.957031 270.757812 22.652344 269.644531 22.476562 C 268.53125 22.300781 267.332031 22.304688 266.109375 22.390625 C 263.648438 22.578125 261.058594 23.273438 258.5 24.199219 C 255.933594 25.152344 253.390625 26.363281 250.890625 27.71875 C 245.890625 30.453125 241.078125 33.765625 236.425781 37.316406 C 231.769531 40.875 227.265625 44.691406 222.882812 48.664062 C 218.5 52.636719 214.234375 56.757812 210.074219 60.996094 C 207.992188 63.109375 205.941406 65.257812 203.917969 67.425781 C 202.90625 68.511719 201.902344 69.601562 200.90625 70.699219 C 199.921875 71.789062 198.914062 72.914062 197.984375 73.984375 L 191.511719 68.417969 C 192.550781 67.21875 193.550781 66.101562 194.578125 64.964844 C 195.601562 63.835938 196.632812 62.714844 197.671875 61.601562 C 199.746094 59.375 201.851562 57.179688 203.984375 55.007812 C 208.246094 50.667969 212.628906 46.4375 217.148438 42.335938 C 221.675781 38.234375 226.34375 34.273438 231.242188 30.53125 C 236.140625 26.796875 241.253906 23.261719 246.800781 20.222656 C 249.585938 18.710938 252.476562 17.328125 255.546875 16.183594 C 258.632812 15.074219 261.890625 14.160156 265.433594 13.878906 C 267.203125 13.75 269.027344 13.742188 270.890625 14.03125 C 272.746094 14.3125 274.621094 14.847656 276.386719 15.667969 C 276.820312 15.886719 277.257812 16.101562 277.6875 16.332031 L 278.921875 17.109375 C 279.125 17.226562 279.335938 17.398438 279.539062 17.558594 L 280.152344 18.042969 C 280.570312 18.351562 280.9375 18.734375 281.3125 19.113281 C 282.792969 20.625 283.925781 22.492188 284.636719 24.390625 C 285.328125 26.292969 285.636719 28.183594 285.769531 30 L 285.828125 31.351562 C 285.832031 31.796875 285.8125 32.230469 285.804688 32.671875 L 285.785156 33.328125 L 285.734375 33.96875 L 285.628906 35.246094 C 285.238281 38.601562 284.488281 41.75 283.597656 44.792969 C 281.792969 50.871094 279.441406 56.554688 276.988281 62.144531 C 274.523438 67.726562 271.914062 73.183594 269.316406 78.609375 C 266.71875 84.035156 264.121094 89.425781 261.671875 94.835938 C 259.222656 100.246094 256.902344 105.683594 255.003906 111.160156 C 254.054688 113.894531 253.21875 116.640625 252.578125 119.371094 C 251.933594 122.101562 251.515625 124.820312 251.460938 127.398438 C 251.421875 128.050781 251.484375 128.660156 251.492188 129.292969 C 251.515625 129.597656 251.554688 129.894531 251.585938 130.195312 L 251.628906 130.648438 L 251.710938 131.078125 C 251.886719 132.246094 252.242188 133.285156 252.6875 134.21875 L 252.859375 134.566406 C 252.910156 134.683594 252.96875 134.800781 253.046875 134.898438 C 253.1875 135.109375 253.320312 135.320312 253.453125 135.535156 C 253.777344 135.914062 254.058594 136.328125 254.449219 136.660156 C 254.777344 137.035156 255.238281 137.320312 255.628906 137.648438 C 256.003906 137.902344 256.398438 138.113281 256.808594 138.292969 C 257.226562 138.457031 257.667969 138.585938 258.136719 138.683594 C 258.613281 138.761719 259.113281 138.824219 259.640625 138.828125 C 260.703125 138.84375 261.863281 138.691406 263.054688 138.414062 C 265.457031 137.832031 267.957031 136.769531 270.394531 135.472656 C 275.289062 132.855469 279.988281 129.402344 284.5 125.710938 C 289.011719 122 293.359375 118.003906 297.589844 113.867188 C 301.824219 109.730469 305.9375 105.445312 309.972656 101.070312 C 314.007812 96.695312 317.960938 92.230469 321.847656 87.703125 C 325.734375 83.175781 329.554688 78.585938 333.324219 73.949219 C 337.09375 69.3125 340.808594 64.625 344.472656 59.902344 C 347.683594 55.765625 350.855469 51.597656 353.992188 47.402344 C 348.785156 47.523438 345.078125 45.375 343.203125 43.964844 C 344.871094 41.75 346.527344 39.53125 348.171875 37.308594 C 349.300781 38.140625 351.117188 39.035156 353.660156 38.953125 C 356.199219 38.871094 359.503906 37.792969 363.492188 34.691406 L 370.191406 39.410156 C 368.480469 44.320312 368.421875 47.777344 369.078125 50.273438 Z M 369.078125 50.273438 " fill-opacity="1" fill-rule="nonzero"/></g></g></g><g clip-path="url(#fd49d875c7)"><path fill="#ff6100" d="M 35.039062 72.117188 L 35.039062 81.070312 C 24.195312 84.242188 22.574219 89.867188 22.574219 92.9375 L 13.246094 92.9375 C 13.246094 90.375 13.835938 85.734375 17.402344 81.257812 L 2.433594 81.257812 L 2.433594 71.929688 L 17.402344 71.929688 C 13.835938 67.453125 13.246094 62.8125 13.246094 60.246094 L 22.574219 60.246094 C 22.574219 63.320312 24.195312 68.945312 35.039062 72.117188 Z M 35.039062 72.117188 " fill-opacity="1" fill-rule="nonzero"/></g><g fill="#000000" fill-opacity="1"><g transform="translate(48.347576, 91.600801)"><g><path d="M 20.125 0.453125 C 13.238281 0.453125 8.238281 -0.875 5.125 -3.53125 C 2.007812 -6.1875 0.453125 -10.242188 0.453125 -15.703125 C 0.453125 -21.128906 2.007812 -25.160156 5.125 -27.796875 C 8.238281 -30.441406 13.238281 -31.765625 20.125 -31.765625 C 26.394531 -31.765625 31.160156 -30.625 34.421875 -28.34375 C 37.691406 -26.0625 39.441406 -22.441406 39.671875 -17.484375 L 27.78125 -17.484375 C 27.570312 -18.984375 26.863281 -20.097656 25.65625 -20.828125 C 24.445312 -21.554688 22.601562 -21.921875 20.125 -21.921875 C 17.832031 -21.921875 16.109375 -21.628906 14.953125 -21.046875 C 13.804688 -20.460938 13.039062 -19.703125 12.65625 -18.765625 C 12.269531 -17.828125 12.078125 -16.804688 12.078125 -15.703125 C 12.078125 -14.597656 12.269531 -13.5625 12.65625 -12.59375 C 13.039062 -11.625 13.816406 -10.847656 14.984375 -10.265625 C 16.148438 -9.679688 17.863281 -9.390625 20.125 -9.390625 C 22.601562 -9.390625 24.445312 -9.769531 25.65625 -10.53125 C 26.863281 -11.289062 27.570312 -12.414062 27.78125 -13.90625 L 39.671875 -13.90625 C 39.441406 -8.957031 37.695312 -5.328125 34.4375 -3.015625 C 31.1875 -0.703125 26.414062 0.453125 20.125 0.453125 Z M 20.125 0.453125 "/></g></g></g><g fill="#000000" fill-opacity="1"><g transform="translate(88.467286, 91.600801)"><g><path d="M 0.890625 0 L 0.890625 -31.3125 L 12.53125 -31.3125 L 12.53125 0 Z M 0.890625 0 "/></g></g></g><g fill="#000000" fill-opacity="1"><g transform="translate(101.885248, 91.600801)"><g><path d="M 0.890625 0 L 0.890625 -31.3125 L 16.109375 -31.3125 L 29.609375 -12.84375 L 29.609375 -31.3125 L 41.25 -31.3125 L 41.25 0 L 26.03125 0 L 12.53125 -18.46875 L 12.53125 0 Z M 0.890625 0 "/></g></g></g><g fill="#000000" fill-opacity="1"><g transform="translate(144.01765, 91.600801)"><g><path d="M 8.71875 -34 L 8.71875 -40.265625 L 26.125 -43.84375 L 26.125 -37.578125 Z M 0.890625 0 L 0.890625 -31.3125 L 34 -31.3125 L 34 -22.375 L 12.53125 -22.375 L 12.53125 -19.453125 L 34 -19.453125 L 34 -11.859375 L 12.53125 -11.859375 L 12.53125 -8.953125 L 34 -8.953125 L 34 0 Z M 0.890625 0 "/></g></g></g><g fill="#000000" fill-opacity="1"><g transform="translate(178.457088, 91.600801)"><g><path d="M 0.890625 0 L 0.890625 -31.3125 L 34 -31.3125 L 34 -21.46875 L 12.53125 -21.46875 L 12.53125 -18.125 L 31.3125 -18.125 L 31.3125 -8.28125 L 12.53125 -8.28125 L 12.53125 0 Z M 0.890625 0 "/></g></g></g><g fill="#000000" fill-opacity="1"><g transform="translate(212.896526, 91.600801)"><g><path d="M 0.890625 0 L 0.890625 -31.3125 L 12.53125 -31.3125 L 12.53125 -9.84375 L 33.109375 -9.84375 L 33.109375 0 Z M 0.890625 0 "/></g></g></g><g fill="#000000" fill-opacity="1"><g transform="translate(246.441442, 91.600801)"><g><path d="M 0.890625 0 L 0.890625 -31.3125 L 12.53125 -31.3125 L 12.53125 0 Z M 0.890625 0 "/></g></g></g><g fill="#000000" fill-opacity="1"><g transform="translate(259.859404, 91.600801)"><g><path d="M 0.453125 0 L 15.25 -15.65625 L 0.453125 -31.3125 L 15.65625 -31.3125 L 23.53125 -22.375 L 31.40625 -31.3125 L 46.609375 -31.3125 L 31.8125 -15.65625 L 46.609375 0 L 31.40625 0 L 23.53125 -8.953125 L 15.65625 0 Z M 0.453125 0 "/></g></g></g><g fill="#9cff1e" fill-opacity="1"><g transform="translate(48.347576, 117.79417)"><g><path d="M 0.375 0 L 0.375 -13.375 L 6.5 -13.375 L 10.625 -5.734375 L 14.75 -13.375 L 20.875 -13.375 L 20.875 0 L 15.90625 0 L 15.90625 -6.359375 L 12.25 0 L 9 0 L 5.34375 -6.359375 L 5.34375 0 Z M 0.375 0 "/></g></g></g><g fill="#9cff1e" fill-opacity="1"><g transform="translate(69.590727, 117.79417)"><g><path d="M 8.59375 0.1875 C 5.65625 0.1875 3.519531 -0.375 2.1875 -1.5 C 0.851562 -2.632812 0.1875 -4.367188 0.1875 -6.703125 C 0.1875 -9.023438 0.851562 -10.75 2.1875 -11.875 C 3.519531 -13 5.65625 -13.5625 8.59375 -13.5625 C 11.53125 -13.5625 13.664062 -13 15 -11.875 C 16.332031 -10.75 17 -9.023438 17 -6.703125 C 17 -4.390625 16.332031 -2.660156 15 -1.515625 C 13.664062 -0.378906 11.53125 0.1875 8.59375 0.1875 Z M 8.59375 -4.015625 C 9.582031 -4.015625 10.320312 -4.140625 10.8125 -4.390625 C 11.300781 -4.648438 11.625 -4.984375 11.78125 -5.390625 C 11.945312 -5.796875 12.03125 -6.234375 12.03125 -6.703125 C 12.03125 -7.179688 11.945312 -7.617188 11.78125 -8.015625 C 11.625 -8.421875 11.300781 -8.742188 10.8125 -8.984375 C 10.320312 -9.234375 9.582031 -9.359375 8.59375 -9.359375 C 7.613281 -9.359375 6.878906 -9.234375 6.390625 -8.984375 C 5.898438 -8.742188 5.570312 -8.421875 5.40625 -8.015625 C 5.238281 -7.617188 5.15625 -7.179688 5.15625 -6.703125 C 5.15625 -6.234375 5.238281 -5.789062 5.40625 -5.375 C 5.570312 -4.96875 5.898438 -4.640625 6.390625 -4.390625 C 6.890625 -4.140625 7.625 -4.015625 8.59375 -4.015625 Z M 8.59375 -4.015625 "/></g></g></g><g fill="#9cff1e" fill-opacity="1"><g transform="translate(86.783925, 117.79417)"><g><path d="M 5.734375 0 L 0.1875 -13.375 L 5.65625 -13.375 L 9.421875 -3.4375 L 13.1875 -13.375 L 18.65625 -13.375 L 13.109375 0 Z M 5.734375 0 "/></g></g></g><g fill="#9cff1e" fill-opacity="1"><g transform="translate(105.620028, 117.79417)"><g><path d="M 0.375 0 L 0.375 -13.375 L 5.34375 -13.375 L 5.34375 0 Z M 0.375 0 "/></g></g></g><g fill="#9cff1e" fill-opacity="1"><g transform="translate(111.351093, 117.79417)"><g><path d="M 0.375 0 L 0.375 -13.375 L 14.515625 -13.375 L 14.515625 -9.5625 L 5.34375 -9.5625 L 5.34375 -8.3125 L 14.515625 -8.3125 L 14.515625 -5.0625 L 5.34375 -5.0625 L 5.34375 -3.828125 L 14.515625 -3.828125 L 14.515625 0 Z M 0.375 0 "/></g></g></g><g fill="#9cff1e" fill-opacity="1"><g transform="translate(126.060829, 117.79417)"><g><path d="M 8.734375 0.1875 C 6.910156 0.1875 5.359375 0.0546875 4.078125 -0.203125 C 2.804688 -0.472656 1.835938 -0.960938 1.171875 -1.671875 C 0.515625 -2.378906 0.1875 -3.394531 0.1875 -4.71875 L 5.15625 -4.71875 C 5.15625 -4.5 5.25 -4.304688 5.4375 -4.140625 C 5.632812 -3.972656 6.003906 -3.84375 6.546875 -3.75 C 7.085938 -3.664062 7.878906 -3.625 8.921875 -3.625 C 9.898438 -3.625 10.628906 -3.644531 11.109375 -3.6875 C 11.597656 -3.738281 11.921875 -3.816406 12.078125 -3.921875 C 12.234375 -4.023438 12.3125 -4.15625 12.3125 -4.3125 C 12.3125 -4.507812 12.226562 -4.65625 12.0625 -4.75 C 11.90625 -4.84375 11.570312 -4.910156 11.0625 -4.953125 C 10.550781 -5.003906 9.773438 -5.039062 8.734375 -5.0625 C 6.722656 -5.125 5.101562 -5.296875 3.875 -5.578125 C 2.65625 -5.859375 1.765625 -6.300781 1.203125 -6.90625 C 0.648438 -7.507812 0.375 -8.328125 0.375 -9.359375 C 0.375 -10.835938 1.078125 -11.90625 2.484375 -12.5625 C 3.890625 -13.226562 5.910156 -13.5625 8.546875 -13.5625 C 10.285156 -13.5625 11.757812 -13.410156 12.96875 -13.109375 C 14.1875 -12.804688 15.113281 -12.3125 15.75 -11.625 C 16.382812 -10.945312 16.703125 -10.035156 16.703125 -8.890625 L 11.734375 -8.890625 C 11.734375 -9.242188 11.4375 -9.472656 10.84375 -9.578125 C 10.257812 -9.691406 9.363281 -9.75 8.15625 -9.75 C 7.382812 -9.75 6.796875 -9.734375 6.390625 -9.703125 C 5.992188 -9.671875 5.71875 -9.609375 5.5625 -9.515625 C 5.414062 -9.421875 5.34375 -9.285156 5.34375 -9.109375 C 5.34375 -8.941406 5.421875 -8.820312 5.578125 -8.75 C 5.742188 -8.675781 6.066406 -8.625 6.546875 -8.59375 C 7.035156 -8.570312 7.765625 -8.539062 8.734375 -8.5 C 10.054688 -8.445312 11.242188 -8.367188 12.296875 -8.265625 C 13.347656 -8.160156 14.242188 -7.972656 14.984375 -7.703125 C 15.722656 -7.429688 16.289062 -7.035156 16.6875 -6.515625 C 17.082031 -6.003906 17.28125 -5.3125 17.28125 -4.4375 C 17.28125 -3.207031 16.945312 -2.257812 16.28125 -1.59375 C 15.613281 -0.925781 14.644531 -0.460938 13.375 -0.203125 C 12.113281 0.0546875 10.566406 0.1875 8.734375 0.1875 Z M 8.734375 0.1875 "/></g></g></g></svg>